<mxfile host="app.diagrams.net" agent="Mozilla/5.0 (X11; Linux x86_64) AppleWebKit/537.36 (KHTML, like Gecko) Chrome/133.0.0.0 Safari/537.36" version="26.0.16">
  <diagram name="PÃ¡gina-1" id="gY1mepuriC6mviOZ3ecI">
    <mxGraphModel dx="795" dy="486" grid="1" gridSize="10" guides="1" tooltips="1" connect="1" arrows="1" fold="1" page="1" pageScale="1" pageWidth="827" pageHeight="1169" math="0" shadow="0">
      <root>
        <mxCell id="0" />
        <mxCell id="1" parent="0" />
        <mxCell id="ijSmL6pv4EfpvHXNeZ9z-1" value="Memory Management System&lt;div&gt;&lt;br&gt;&lt;/div&gt;&lt;div&gt;&lt;br&gt;&lt;/div&gt;&lt;div&gt;&lt;br&gt;&lt;/div&gt;&lt;div&gt;&lt;br&gt;&lt;/div&gt;&lt;div&gt;&lt;br&gt;&lt;/div&gt;&lt;div&gt;&lt;br&gt;&lt;/div&gt;&lt;div&gt;&lt;br&gt;&lt;/div&gt;&lt;div&gt;&lt;br&gt;&lt;/div&gt;&lt;div&gt;&lt;br&gt;&lt;/div&gt;&lt;div&gt;&lt;br&gt;&lt;/div&gt;&lt;div&gt;&lt;br&gt;&lt;/div&gt;&lt;div&gt;&lt;br&gt;&lt;/div&gt;&lt;div&gt;&lt;br&gt;&lt;/div&gt;&lt;div&gt;&lt;br&gt;&lt;/div&gt;&lt;div&gt;&lt;br&gt;&lt;/div&gt;&lt;div&gt;&lt;br&gt;&lt;/div&gt;&lt;div&gt;&lt;br&gt;&lt;/div&gt;&lt;div&gt;&lt;br&gt;&lt;/div&gt;&lt;div&gt;&lt;br&gt;&lt;/div&gt;&lt;div&gt;&lt;br&gt;&lt;/div&gt;&lt;div&gt;&lt;br&gt;&lt;/div&gt;&lt;div&gt;&lt;br&gt;&lt;/div&gt;&lt;div&gt;&lt;br&gt;&lt;/div&gt;&lt;div&gt;&lt;br&gt;&lt;/div&gt;" style="shape=folder;fontStyle=1;spacingTop=10;tabWidth=40;tabHeight=14;tabPosition=left;html=1;whiteSpace=wrap;" vertex="1" parent="1">
          <mxGeometry x="300" y="130" width="420" height="410" as="geometry" />
        </mxCell>
        <mxCell id="ijSmL6pv4EfpvHXNeZ9z-2" value="Heap&lt;div&gt;&lt;br&gt;&lt;/div&gt;&lt;div&gt;&lt;br&gt;&lt;/div&gt;&lt;div&gt;&lt;br&gt;&lt;/div&gt;&lt;div&gt;&lt;br&gt;&lt;/div&gt;&lt;div&gt;&lt;br&gt;&lt;/div&gt;&lt;div&gt;&lt;br&gt;&lt;/div&gt;&lt;div&gt;&lt;br&gt;&lt;/div&gt;&lt;div&gt;&lt;br&gt;&lt;/div&gt;&lt;div&gt;&lt;br&gt;&lt;/div&gt;&lt;div&gt;&lt;br&gt;&lt;/div&gt;&lt;div&gt;&lt;br&gt;&lt;/div&gt;&lt;div&gt;&lt;br&gt;&lt;/div&gt;&lt;div&gt;&lt;br&gt;&lt;/div&gt;&lt;div&gt;&lt;br&gt;&lt;/div&gt;&lt;div&gt;&lt;br&gt;&lt;/div&gt;" style="html=1;dropTarget=0;whiteSpace=wrap;" vertex="1" parent="1">
          <mxGeometry x="320" y="200" width="370" height="250" as="geometry" />
        </mxCell>
        <mxCell id="ijSmL6pv4EfpvHXNeZ9z-3" value="" style="shape=module;jettyWidth=8;jettyHeight=4;" vertex="1" parent="ijSmL6pv4EfpvHXNeZ9z-2">
          <mxGeometry x="1" width="20" height="20" relative="1" as="geometry">
            <mxPoint x="-27" y="7" as="offset" />
          </mxGeometry>
        </mxCell>
        <mxCell id="ijSmL6pv4EfpvHXNeZ9z-4" value="&lt;div&gt;Segment&lt;/div&gt;&lt;div&gt;&lt;br&gt;&lt;/div&gt;&lt;div&gt;&lt;br&gt;&lt;/div&gt;&lt;div&gt;&lt;br&gt;&lt;/div&gt;&lt;div&gt;&lt;br&gt;&lt;/div&gt;&lt;div&gt;&lt;br&gt;&lt;/div&gt;&lt;div&gt;&lt;br&gt;&lt;/div&gt;&lt;div&gt;&lt;br&gt;&lt;/div&gt;&lt;div&gt;&lt;br&gt;&lt;/div&gt;&lt;div&gt;&lt;br&gt;&lt;/div&gt;&lt;div&gt;&lt;br&gt;&lt;/div&gt;" style="html=1;dropTarget=0;whiteSpace=wrap;" vertex="1" parent="1">
          <mxGeometry x="500" y="240" width="170" height="180" as="geometry" />
        </mxCell>
        <mxCell id="ijSmL6pv4EfpvHXNeZ9z-5" value="" style="shape=module;jettyWidth=8;jettyHeight=4;" vertex="1" parent="ijSmL6pv4EfpvHXNeZ9z-4">
          <mxGeometry x="1" width="20" height="20" relative="1" as="geometry">
            <mxPoint x="-27" y="7" as="offset" />
          </mxGeometry>
        </mxCell>
        <mxCell id="ijSmL6pv4EfpvHXNeZ9z-6" value="&lt;p style=&quot;margin:0px;margin-top:4px;text-align:center;&quot;&gt;&lt;b&gt;Client&lt;/b&gt;&lt;span style=&quot;color: rgba(0, 0, 0, 0); font-family: monospace; font-size: 0px; text-wrap-mode: nowrap; background-color: transparent; text-align: left;&quot;&gt;%3CmxGraphModel%3E%3Croot%3E%3CmxCell%20id%3D%220%22%2F%3E%3CmxCell%20id%3D%221%22%20parent%3D%220%22%2F%3E%3CmxCell%20id%3D%222%22%20value%3D%22Heap%26lt%3Bdiv%26gt%3B%26lt%3Bbr%26gt%3B%26lt%3B%2Fdiv%26gt%3B%26lt%3Bdiv%26gt%3B%26lt%3Bbr%26gt%3B%26lt%3B%2Fdiv%26gt%3B%26lt%3Bdiv%26gt%3B%26lt%3Bbr%26gt%3B%26lt%3B%2Fdiv%26gt%3B%26lt%3Bdiv%26gt%3B%26lt%3Bbr%26gt%3B%26lt%3B%2Fdiv%26gt%3B%26lt%3Bdiv%26gt%3B%26lt%3Bbr%26gt%3B%26lt%3B%2Fdiv%26gt%3B%26lt%3Bdiv%26gt%3B%26lt%3Bbr%26gt%3B%26lt%3B%2Fdiv%26gt%3B%26lt%3Bdiv%26gt%3B%26lt%3Bbr%26gt%3B%26lt%3B%2Fdiv%26gt%3B%26lt%3Bdiv%26gt%3B%26lt%3Bbr%26gt%3B%26lt%3B%2Fdiv%26gt%3B%26lt%3Bdiv%26gt%3B%26lt%3Bbr%26gt%3B%26lt%3B%2Fdiv%26gt%3B%26lt%3Bdiv%26gt%3B%26lt%3Bbr%26gt%3B%26lt%3B%2Fdiv%26gt%3B%26lt%3Bdiv%26gt%3B%26lt%3Bbr%26gt%3B%26lt%3B%2Fdiv%26gt%3B%26lt%3Bdiv%26gt%3B%26lt%3Bbr%26gt%3B%26lt%3B%2Fdiv%26gt%3B%26lt%3Bdiv%26gt%3B%26lt%3Bbr%26gt%3B%26lt%3B%2Fdiv%26gt%3B%26lt%3Bdiv%26gt%3B%26lt%3Bbr%26gt%3B%26lt%3B%2Fdiv%26gt%3B%26lt%3Bdiv%26gt%3B%26lt%3Bbr%26gt%3B%26lt%3B%2Fdiv%26gt%3B%22%20style%3D%22html%3D1%3BdropTarget%3D0%3BwhiteSpace%3Dwrap%3B%22%20vertex%3D%221%22%20parent%3D%221%22%3E%3CmxGeometry%20x%3D%22290%22%20y%3D%22200%22%20width%3D%22480%22%20height%3D%22250%22%20as%3D%22geometry%22%2F%3E%3C%2FmxCell%3E%3CmxCell%20id%3D%223%22%20value%3D%22%22%20style%3D%22shape%3Dmodule%3BjettyWidth%3D8%3BjettyHeight%3D4%3B%22%20vertex%3D%221%22%20parent%3D%222%22%3E%3CmxGeometry%20x%3D%221%22%20width%3D%2220%22%20height%3D%2220%22%20relative%3D%221%22%20as%3D%22geometry%22%3E%3CmxPoint%20x%3D%22-27%22%20y%3D%227%22%20as%3D%22offset%22%2F%3E%3C%2FmxGeometry%3E%3C%2FmxCell%3E%3C%2Froot%3E%3C%2FmxGraphModel%3E&lt;/span&gt;&lt;/p&gt;" style="verticalAlign=top;align=left;overflow=fill;html=1;whiteSpace=wrap;" vertex="1" parent="1">
          <mxGeometry x="100" y="330" width="140" height="45" as="geometry" />
        </mxCell>
        <mxCell id="ijSmL6pv4EfpvHXNeZ9z-7" value="&lt;p style=&quot;margin:0px;margin-top:4px;text-align:center;&quot;&gt;&lt;b&gt;Buffered&lt;/b&gt;&lt;/p&gt;&lt;p style=&quot;margin:0px;margin-top:4px;text-align:center;&quot;&gt;&lt;b&gt;Ptr&lt;/b&gt;&lt;/p&gt;" style="verticalAlign=top;align=left;overflow=fill;html=1;whiteSpace=wrap;" vertex="1" parent="1">
          <mxGeometry x="350" y="275" width="120" height="40" as="geometry" />
        </mxCell>
        <mxCell id="ijSmL6pv4EfpvHXNeZ9z-8" value="&lt;p style=&quot;margin:0px;margin-top:4px;text-align:center;&quot;&gt;&lt;b&gt;Memory&lt;/b&gt;&lt;/p&gt;&lt;p style=&quot;margin:0px;margin-top:4px;text-align:center;&quot;&gt;&lt;b&gt;Block&lt;/b&gt;&lt;span style=&quot;color: rgba(0, 0, 0, 0); font-family: monospace; font-size: 0px; text-wrap-mode: nowrap; background-color: transparent; text-align: left;&quot;&gt;%3CmxGraphModel%3E%3Croot%3E%3CmxCell%20id%3D%220%22%2F%3E%3CmxCell%20id%3D%221%22%20parent%3D%220%22%2F%3E%3CmxCell%20id%3D%222%22%20value%3D%22%26lt%3Bp%20style%3D%26quot%3Bmargin%3A0px%3Bmargin-top%3A4px%3Btext-align%3Acenter%3B%26quot%3B%26gt%3B%26lt%3Bb%26gt%3BBuffered%26lt%3B%2Fb%26gt%3B%26lt%3B%2Fp%26gt%3B%26lt%3Bp%20style%3D%26quot%3Bmargin%3A0px%3Bmargin-top%3A4px%3Btext-align%3Acenter%3B%26quot%3B%26gt%3B%26lt%3Bb%26gt%3BPtr%26lt%3B%2Fb%26gt%3B%26lt%3B%2Fp%26gt%3B%22%20style%3D%22verticalAlign%3Dtop%3Balign%3Dleft%3Boverflow%3Dfill%3Bhtml%3D1%3BwhiteSpace%3Dwrap%3B%22%20vertex%3D%221%22%20parent%3D%221%22%3E%3CmxGeometry%20x%3D%22344%22%20y%3D%22275%22%20width%3D%22140%22%20height%3D%2240%22%20as%3D%22geometry%22%2F%3E%3C%2FmxCell%3E%3C%2Froot%3E%3C%2FmxGraphModel%3E&lt;/span&gt;&lt;/p&gt;" style="verticalAlign=top;align=left;overflow=fill;html=1;whiteSpace=wrap;" vertex="1" parent="1">
          <mxGeometry x="525" y="275" width="120" height="40" as="geometry" />
        </mxCell>
        <mxCell id="ijSmL6pv4EfpvHXNeZ9z-9" value="&lt;p style=&quot;margin:0px;margin-top:4px;text-align:center;&quot;&gt;&lt;b&gt;Free Block List&lt;/b&gt;&lt;/p&gt;" style="verticalAlign=top;align=left;overflow=fill;html=1;whiteSpace=wrap;" vertex="1" parent="1">
          <mxGeometry x="525" y="370" width="120" height="40" as="geometry" />
        </mxCell>
        <mxCell id="ijSmL6pv4EfpvHXNeZ9z-10" value="&lt;p style=&quot;margin:0px;margin-top:4px;text-align:center;&quot;&gt;&lt;b&gt;Garbage &lt;br&gt;Collector&lt;/b&gt;&lt;/p&gt;" style="verticalAlign=top;align=left;overflow=fill;html=1;whiteSpace=wrap;" vertex="1" parent="1">
          <mxGeometry x="515" y="480" width="140" height="40" as="geometry" />
        </mxCell>
        <mxCell id="ijSmL6pv4EfpvHXNeZ9z-11" value="" style="endArrow=open;html=1;endSize=12;startArrow=diamondThin;startSize=14;startFill=0;edgeStyle=orthogonalEdgeStyle;rounded=0;entryX=0;entryY=0.5;entryDx=0;entryDy=0;exitX=0.5;exitY=0;exitDx=0;exitDy=0;" edge="1" parent="1" source="ijSmL6pv4EfpvHXNeZ9z-6" target="ijSmL6pv4EfpvHXNeZ9z-7">
          <mxGeometry x="0.0011" relative="1" as="geometry">
            <mxPoint x="120" y="260" as="sourcePoint" />
            <mxPoint x="280" y="260" as="targetPoint" />
            <mxPoint as="offset" />
          </mxGeometry>
        </mxCell>
        <mxCell id="ijSmL6pv4EfpvHXNeZ9z-12" value="*" style="edgeLabel;resizable=0;html=1;align=left;verticalAlign=top;" connectable="0" vertex="1" parent="ijSmL6pv4EfpvHXNeZ9z-11">
          <mxGeometry x="-1" relative="1" as="geometry">
            <mxPoint x="-20" y="-25" as="offset" />
          </mxGeometry>
        </mxCell>
        <mxCell id="ijSmL6pv4EfpvHXNeZ9z-13" value="*" style="edgeLabel;resizable=0;html=1;align=right;verticalAlign=top;" connectable="0" vertex="1" parent="ijSmL6pv4EfpvHXNeZ9z-11">
          <mxGeometry x="1" relative="1" as="geometry" />
        </mxCell>
        <mxCell id="ijSmL6pv4EfpvHXNeZ9z-14" value="" style="endArrow=open;html=1;endSize=12;startArrow=diamondThin;startSize=14;startFill=0;edgeStyle=orthogonalEdgeStyle;rounded=0;entryX=0;entryY=0.75;entryDx=0;entryDy=0;exitX=0.231;exitY=-0.006;exitDx=0;exitDy=0;exitPerimeter=0;" edge="1" parent="1" source="ijSmL6pv4EfpvHXNeZ9z-6" target="ijSmL6pv4EfpvHXNeZ9z-6">
          <mxGeometry relative="1" as="geometry">
            <mxPoint x="180" y="340" as="sourcePoint" />
            <mxPoint x="360" y="305" as="targetPoint" />
            <Array as="points">
              <mxPoint x="132" y="310" />
              <mxPoint x="132" y="310" />
              <mxPoint x="132" y="300" />
              <mxPoint x="70" y="300" />
              <mxPoint x="70" y="364" />
            </Array>
          </mxGeometry>
        </mxCell>
        <mxCell id="ijSmL6pv4EfpvHXNeZ9z-15" value="*" style="edgeLabel;resizable=0;html=1;align=left;verticalAlign=top;" connectable="0" vertex="1" parent="ijSmL6pv4EfpvHXNeZ9z-14">
          <mxGeometry x="-1" relative="1" as="geometry">
            <mxPoint x="-20" y="-25" as="offset" />
          </mxGeometry>
        </mxCell>
        <mxCell id="ijSmL6pv4EfpvHXNeZ9z-16" value="*" style="edgeLabel;resizable=0;html=1;align=right;verticalAlign=top;" connectable="0" vertex="1" parent="ijSmL6pv4EfpvHXNeZ9z-14">
          <mxGeometry x="1" relative="1" as="geometry" />
        </mxCell>
        <mxCell id="ijSmL6pv4EfpvHXNeZ9z-33" value="Derived Object" style="edgeLabel;html=1;align=center;verticalAlign=middle;resizable=0;points=[];" vertex="1" connectable="0" parent="ijSmL6pv4EfpvHXNeZ9z-14">
          <mxGeometry x="0.8029" y="1" relative="1" as="geometry">
            <mxPoint x="-22" y="-13" as="offset" />
          </mxGeometry>
        </mxCell>
        <mxCell id="ijSmL6pv4EfpvHXNeZ9z-18" value="" style="endArrow=open;html=1;endSize=12;startArrow=diamondThin;startSize=14;startFill=0;edgeStyle=orthogonalEdgeStyle;rounded=0;entryX=0.446;entryY=0.978;entryDx=0;entryDy=0;exitX=0.005;exitY=0.417;exitDx=0;exitDy=0;entryPerimeter=0;exitPerimeter=0;" edge="1" parent="1" source="ijSmL6pv4EfpvHXNeZ9z-10" target="ijSmL6pv4EfpvHXNeZ9z-6">
          <mxGeometry relative="1" as="geometry">
            <mxPoint x="180" y="340" as="sourcePoint" />
            <mxPoint x="360" y="305" as="targetPoint" />
            <Array as="points">
              <mxPoint x="320" y="497" />
              <mxPoint x="162" y="497" />
            </Array>
          </mxGeometry>
        </mxCell>
        <mxCell id="ijSmL6pv4EfpvHXNeZ9z-19" value="1" style="edgeLabel;resizable=0;html=1;align=left;verticalAlign=top;" connectable="0" vertex="1" parent="ijSmL6pv4EfpvHXNeZ9z-18">
          <mxGeometry x="-1" relative="1" as="geometry">
            <mxPoint x="-20" y="-25" as="offset" />
          </mxGeometry>
        </mxCell>
        <mxCell id="ijSmL6pv4EfpvHXNeZ9z-20" value="*" style="edgeLabel;resizable=0;html=1;align=right;verticalAlign=top;" connectable="0" vertex="1" parent="ijSmL6pv4EfpvHXNeZ9z-18">
          <mxGeometry x="1" relative="1" as="geometry">
            <mxPoint x="-12" as="offset" />
          </mxGeometry>
        </mxCell>
        <mxCell id="ijSmL6pv4EfpvHXNeZ9z-34" value="Root Object" style="edgeLabel;html=1;align=center;verticalAlign=middle;resizable=0;points=[];" vertex="1" connectable="0" parent="ijSmL6pv4EfpvHXNeZ9z-18">
          <mxGeometry x="0.9365" relative="1" as="geometry">
            <mxPoint x="38" y="1" as="offset" />
          </mxGeometry>
        </mxCell>
        <mxCell id="ijSmL6pv4EfpvHXNeZ9z-21" value="From List" style="endArrow=open;html=1;endSize=12;startArrow=diamondThin;startSize=14;startFill=0;edgeStyle=orthogonalEdgeStyle;rounded=0;exitX=0.173;exitY=0.017;exitDx=0;exitDy=0;exitPerimeter=0;entryX=0.226;entryY=0.998;entryDx=0;entryDy=0;entryPerimeter=0;" edge="1" parent="1" source="ijSmL6pv4EfpvHXNeZ9z-10" target="ijSmL6pv4EfpvHXNeZ9z-4">
          <mxGeometry relative="1" as="geometry">
            <mxPoint x="526" y="507" as="sourcePoint" />
            <mxPoint x="539" y="430" as="targetPoint" />
            <Array as="points">
              <mxPoint x="539" y="460" />
              <mxPoint x="538" y="460" />
            </Array>
          </mxGeometry>
        </mxCell>
        <mxCell id="ijSmL6pv4EfpvHXNeZ9z-22" value="1" style="edgeLabel;resizable=0;html=1;align=left;verticalAlign=top;" connectable="0" vertex="1" parent="ijSmL6pv4EfpvHXNeZ9z-21">
          <mxGeometry x="-1" relative="1" as="geometry">
            <mxPoint x="-20" y="-25" as="offset" />
          </mxGeometry>
        </mxCell>
        <mxCell id="ijSmL6pv4EfpvHXNeZ9z-23" value="1" style="edgeLabel;resizable=0;html=1;align=right;verticalAlign=top;" connectable="0" vertex="1" parent="ijSmL6pv4EfpvHXNeZ9z-21">
          <mxGeometry x="1" relative="1" as="geometry">
            <mxPoint x="-12" as="offset" />
          </mxGeometry>
        </mxCell>
        <mxCell id="ijSmL6pv4EfpvHXNeZ9z-24" value="To List" style="endArrow=open;html=1;endSize=12;startArrow=diamondThin;startSize=14;startFill=0;edgeStyle=orthogonalEdgeStyle;rounded=0;exitX=0.789;exitY=0.035;exitDx=0;exitDy=0;exitPerimeter=0;entryX=0.706;entryY=1;entryDx=0;entryDy=0;entryPerimeter=0;" edge="1" parent="1" source="ijSmL6pv4EfpvHXNeZ9z-10" target="ijSmL6pv4EfpvHXNeZ9z-4">
          <mxGeometry relative="1" as="geometry">
            <mxPoint x="549" y="491" as="sourcePoint" />
            <mxPoint x="548" y="430" as="targetPoint" />
            <Array as="points">
              <mxPoint x="625" y="450" />
              <mxPoint x="620" y="450" />
            </Array>
          </mxGeometry>
        </mxCell>
        <mxCell id="ijSmL6pv4EfpvHXNeZ9z-25" value="1" style="edgeLabel;resizable=0;html=1;align=left;verticalAlign=top;" connectable="0" vertex="1" parent="ijSmL6pv4EfpvHXNeZ9z-24">
          <mxGeometry x="-1" relative="1" as="geometry">
            <mxPoint x="-20" y="-25" as="offset" />
          </mxGeometry>
        </mxCell>
        <mxCell id="ijSmL6pv4EfpvHXNeZ9z-26" value="1" style="edgeLabel;resizable=0;html=1;align=right;verticalAlign=top;" connectable="0" vertex="1" parent="ijSmL6pv4EfpvHXNeZ9z-24">
          <mxGeometry x="1" relative="1" as="geometry">
            <mxPoint x="-12" as="offset" />
          </mxGeometry>
        </mxCell>
        <mxCell id="ijSmL6pv4EfpvHXNeZ9z-27" value="" style="endArrow=open;html=1;endSize=12;startArrow=diamondThin;startSize=14;startFill=0;edgeStyle=orthogonalEdgeStyle;rounded=0;" edge="1" parent="1">
          <mxGeometry relative="1" as="geometry">
            <mxPoint x="580" y="370" as="sourcePoint" />
            <mxPoint x="580" y="314" as="targetPoint" />
            <Array as="points">
              <mxPoint x="580" y="354" />
              <mxPoint x="579" y="354" />
            </Array>
          </mxGeometry>
        </mxCell>
        <mxCell id="ijSmL6pv4EfpvHXNeZ9z-28" value="1" style="edgeLabel;resizable=0;html=1;align=left;verticalAlign=top;" connectable="0" vertex="1" parent="ijSmL6pv4EfpvHXNeZ9z-27">
          <mxGeometry x="-1" relative="1" as="geometry">
            <mxPoint x="-20" y="-25" as="offset" />
          </mxGeometry>
        </mxCell>
        <mxCell id="ijSmL6pv4EfpvHXNeZ9z-29" value="*" style="edgeLabel;resizable=0;html=1;align=right;verticalAlign=top;" connectable="0" vertex="1" parent="ijSmL6pv4EfpvHXNeZ9z-27">
          <mxGeometry x="1" relative="1" as="geometry">
            <mxPoint x="-12" as="offset" />
          </mxGeometry>
        </mxCell>
        <mxCell id="ijSmL6pv4EfpvHXNeZ9z-30" value="" style="endArrow=open;html=1;endSize=12;startArrow=diamondThin;startSize=14;startFill=0;edgeStyle=orthogonalEdgeStyle;rounded=0;exitX=1;exitY=0.5;exitDx=0;exitDy=0;entryX=0;entryY=0.5;entryDx=0;entryDy=0;" edge="1" parent="1" source="ijSmL6pv4EfpvHXNeZ9z-7" target="ijSmL6pv4EfpvHXNeZ9z-8">
          <mxGeometry relative="1" as="geometry">
            <mxPoint x="559" y="501" as="sourcePoint" />
            <mxPoint x="558" y="440" as="targetPoint" />
            <Array as="points">
              <mxPoint x="500" y="295" />
              <mxPoint x="500" y="295" />
            </Array>
          </mxGeometry>
        </mxCell>
        <mxCell id="ijSmL6pv4EfpvHXNeZ9z-31" value="1" style="edgeLabel;resizable=0;html=1;align=left;verticalAlign=top;" connectable="0" vertex="1" parent="ijSmL6pv4EfpvHXNeZ9z-30">
          <mxGeometry x="-1" relative="1" as="geometry">
            <mxPoint x="-20" y="-25" as="offset" />
          </mxGeometry>
        </mxCell>
        <mxCell id="ijSmL6pv4EfpvHXNeZ9z-32" value="1" style="edgeLabel;resizable=0;html=1;align=right;verticalAlign=top;" connectable="0" vertex="1" parent="ijSmL6pv4EfpvHXNeZ9z-30">
          <mxGeometry x="1" relative="1" as="geometry">
            <mxPoint x="-12" as="offset" />
          </mxGeometry>
        </mxCell>
      </root>
    </mxGraphModel>
  </diagram>
</mxfile>
